<?xml version="1.0" encoding="UTF-8" standalone="no"?>
<!-- Created with Inkscape (http://www.inkscape.org/) -->
<svg xmlns:rdf="http://www.w3.org/1999/02/22-rdf-syntax-ns#" xmlns="http://www.w3.org/2000/svg" xmlns:cc="http://web.resource.org/cc/" xmlns:xlink="http://www.w3.org/1999/xlink" xmlns:dc="http://purl.org/dc/elements/1.1/" xmlns:svg="http://www.w3.org/2000/svg" xmlns:inkscape="http://www.inkscape.org/namespaces/inkscape" xmlns:sodipodi="http://sodipodi.sourceforge.net/DTD/sodipodi-0.dtd" xmlns:ns1="http://sozi.baierouge.fr" id="svg2" viewBox="0 0 512 512" version="1.1" inkscape:version="0.91 r13725">
  <defs id="defs4">
    <linearGradient id="linearGradient2892" y2="361.07" gradientUnits="userSpaceOnUse" x2="231.43" gradientTransform="matrix(1.3617 0 0 1.3757 -66.561 461.87)" y1="110.07" x1="194.29">
      <stop id="stop3592" style="stop-color:#f0f0e8" offset="0"/>
      <stop id="stop3594" style="stop-color:#9b9b9b" offset="1"/>
    </linearGradient>
  </defs>
  <g id="layer1" transform="translate(0 -540.36)">
    <text id="text3606" style="font-size:40px;font-family:Bitstream Vera Sans;fill:#000000" xml:space="preserve" transform="translate(0 540.36)" y="152" x="274.28571">
      <tspan id="tspan3612" y="152" x="274.28571"/>
    </text>
    <rect id="rect2816" style="opacity:.5;stroke:#000000;stroke-width:1.3687;fill:url(#linearGradient2892)" rx="20.425" ry="20.635" height="343.92" width="256.77" y="613.98" x="120.18"/>
    <g id="text3618" style="fill:#000000">
      <path id="path2845" style="fill:#0000ff" d="m152.97 860.93v-14.316h4.9316c1.1133 0.00001 1.9629 0.0684 2.5488 0.20508 0.8203 0.18881 1.5202 0.53061 2.0996 1.0254 0.75519 0.63803 1.32 1.4535 1.6943 2.4463 0.37434 0.99285 0.56151 2.1273 0.56153 3.4033-0.00002 1.0872-0.12697 2.0508-0.38086 2.8906-0.25392 0.83985-0.57944 1.5348-0.97657 2.085-0.39714 0.55014-0.83171 0.98308-1.3037 1.2988-0.47201 0.31576-1.0417 0.55502-1.709 0.71778-0.66733 0.16276-1.4339 0.24414-2.2998 0.24414zm1.8945-1.6895h3.0566c0.944 0 1.6846-0.0879 2.2217-0.26367 0.5371-0.17578 0.96516-0.42317 1.2842-0.74219 0.44921-0.44921 0.79914-1.053 1.0498-1.8115 0.25064-0.75846 0.37597-1.678 0.37598-2.7588-0.00001-1.4974-0.24578-2.6481-0.7373-3.4522-0.49155-0.80402-1.0889-1.3428-1.792-1.6162-0.50782-0.1953-1.3249-0.29295-2.4512-0.29297h-3.0078z"/>
      <path id="path2847" style="fill:#0000ff" d="m167.21 848.64v-2.0215h1.7578v2.0215zm0 12.295v-10.371h1.7578v10.371z"/>
      <path id="path2849" style="fill:#0000ff" d="m171.65 860.93v-10.371h1.5723v1.4551c0.32552-0.5078 0.75846-0.91633 1.2988-1.2256 0.54036-0.30923 1.1556-0.46385 1.8457-0.46386 0.76822 0.00001 1.3981 0.15951 1.8896 0.47851 0.49153 0.31902 0.83821 0.76499 1.04 1.3379 0.82031-1.2109 1.888-1.8164 3.2031-1.8164 1.0286 0.00001 1.8196 0.28484 2.373 0.85449 0.55337 0.56967 0.83007 1.447 0.83008 2.6318v7.1191h-1.748v-6.5332c-0.00002-0.70312-0.057-1.2093-0.1709-1.5186-0.11395-0.30924-0.32065-0.55826-0.62012-0.74707-0.29949-0.1888-0.65105-0.2832-1.0547-0.28321-0.72918 0.00001-1.3346 0.24253-1.8164 0.72754-0.48178 0.48504-0.72267 1.2614-0.72266 2.3291v6.0254h-1.7578v-6.7383c-0.00001-0.78124-0.14324-1.3672-0.42969-1.7578-0.28646-0.39061-0.75521-0.58593-1.4062-0.58594-0.4948 0.00001-0.95215 0.13022-1.3721 0.39063-0.41993 0.26042-0.72429 0.64128-0.91309 1.1426-0.1888 0.50131-0.2832 1.224-0.2832 2.168v5.3809z"/>
      <path id="path2851" d="m193.88 860.93v-14.316h1.7578v5.1367c0.82031-0.95051 1.8555-1.4258 3.1055-1.4258 0.76822 0.00001 1.4355 0.15137 2.002 0.4541 0.56639 0.30274 0.97167 0.72104 1.2158 1.2549s0.3662 1.3086 0.36621 2.3242v6.5723h-1.7578v-6.5723c0-0.8789-0.19043-1.5186-0.57129-1.919-0.38086-0.40038-0.9196-0.60057-1.6162-0.60058-0.52083 0.00001-1.0107 0.1351-1.4697 0.40527-0.45899 0.27019-0.78614 0.6364-0.98145 1.0986-0.19531 0.46224-0.29297 1.1003-0.29297 1.9141v5.6738z"/>
      <path id="path2853" d="m212.11 857.59 1.8164 0.22461c-0.28647 1.0612-0.81707 1.8848-1.5918 2.4707-0.77475 0.58594-1.7643 0.87891-2.9688 0.87891-1.5169 0-2.7197-0.46712-3.6084-1.4014-0.88867-0.93424-1.333-2.2445-1.333-3.9307 0-1.7448 0.44921-3.099 1.3476-4.0625 0.89844-0.96353 2.0638-1.4453 3.4961-1.4453 1.3867 0.00001 2.5195 0.47201 3.3984 1.416 0.8789 0.94402 1.3184 2.2722 1.3184 3.9844-0.00001 0.10417-0.003 0.26042-0.01 0.46875h-7.7344c0.0651 1.1393 0.38737 2.0117 0.9668 2.6172 0.57942 0.60547 1.3021 0.9082 2.168 0.9082 0.64452 0 1.1946-0.16927 1.6504-0.50781 0.45572-0.33854 0.81705-0.87891 1.084-1.6211zm-5.7715-2.8418h5.791c-0.0781-0.87239-0.29948-1.5267-0.66406-1.9629-0.5599-0.67707-1.2858-1.0156-2.1777-1.0156-0.8073 0.00001-1.486 0.27019-2.0361 0.81055-0.55013 0.54037-0.85449 1.263-0.91308 2.168z"/>
      <path id="path2855" d="m216.11 860.93v-14.316h1.7578v14.316z"/>
      <path id="path2857" d="m220.56 860.93v-14.316h1.7578v14.316z"/>
      <path id="path2859" d="m224.4 855.75c0-1.9206 0.53385-3.3431 1.6016-4.2676 0.89193-0.76822 1.9792-1.1523 3.2617-1.1523 1.4258 0.00001 2.5911 0.46713 3.4961 1.4014 0.90494 0.93426 1.3574 2.225 1.3574 3.8721-0.00001 1.3346-0.20021 2.3844-0.60059 3.1494-0.4004 0.76497-0.98308 1.359-1.748 1.7822-0.76498 0.42317-1.5999 0.63476-2.5049 0.63476-1.4518 0-2.6253-0.46549-3.5205-1.3965-0.89518-0.93099-1.3428-2.2721-1.3428-4.0234zm1.8066 0c0 1.3281 0.28971 2.3226 0.86914 2.9834 0.57942 0.66081 1.3086 0.99121 2.1875 0.99121 0.87239 0 1.5983-0.33203 2.1777-0.9961 0.57942-0.66406 0.86914-1.6764 0.86915-3.0371-0.00001-1.2826-0.29135-2.2542-0.87403-2.915-0.58269-0.6608-1.307-0.99121-2.1728-0.99121-0.87891 0-1.6081 0.32878-2.1875 0.98632-0.57943 0.65756-0.86914 1.6504-0.86914 2.9785z"/>
      <path id="path2861" style="fill:#0000ff" d="m248.5 859.65c-0.65105 0.55339-1.2777 0.94401-1.8799 1.1719-0.60222 0.22787-1.2484 0.3418-1.9385 0.3418-1.1393 0-2.015-0.27832-2.627-0.83496-0.61198-0.55664-0.91797-1.2679-0.91797-2.1338 0-0.50781 0.11556-0.97168 0.34668-1.3916s0.53385-0.75683 0.9082-1.0107c0.37435-0.2539 0.7959-0.44596 1.2646-0.57617 0.34505-0.0911 0.86588-0.17904 1.5625-0.26368 1.4193-0.16926 2.4642-0.37108 3.1348-0.60547 0.007-0.24087 0.01-0.39387 0.01-0.45898-0.00001-0.71614-0.16602-1.2207-0.49804-1.5137-0.44923-0.39713-1.1166-0.5957-2.002-0.5957-0.82682 0-1.4372 0.14486-1.831 0.43457-0.39389 0.28972-0.68523 0.80241-0.87403 1.5381l-1.7188-0.23437c0.15625-0.73567 0.41341-1.3298 0.77149-1.7822 0.35807-0.45246 0.87565-0.80077 1.5527-1.0449 0.67708-0.24413 1.4616-0.3662 2.3535-0.36621 0.88541 0.00001 1.6048 0.10417 2.1582 0.3125 0.55338 0.20834 0.96028 0.47038 1.2207 0.78613 0.2604 0.31576 0.44269 0.71453 0.54687 1.1963 0.0586 0.29949 0.0879 0.83985 0.0879 1.6211v2.3438c-0.00001 1.6341 0.0374 2.6676 0.11231 3.1006 0.0749 0.43294 0.22297 0.84798 0.44433 1.2451h-1.8359c-0.1823-0.36459-0.29948-0.79102-0.35156-1.2793zm-0.14648-3.9258c-0.63803 0.26042-1.5951 0.48177-2.8711 0.66406-0.72266 0.10417-1.2337 0.22136-1.5332 0.35156-0.29948 0.13022-0.5306 0.32064-0.69336 0.57129-0.16276 0.25066-0.24414 0.52898-0.24414 0.83496 0 0.46876 0.17741 0.85938 0.53223 1.1719 0.35481 0.3125 0.87402 0.46875 1.5576 0.46875 0.67708 0 1.2793-0.14811 1.8066-0.44434 0.52734-0.29622 0.91471-0.70149 1.1621-1.2158 0.1888-0.39713 0.2832-0.98307 0.28321-1.7578z"/>
      <path id="path2863" style="fill:#0000ff" d="m252.16 857.84 1.7383-0.27343c0.0977 0.69661 0.36947 1.2305 0.81543 1.6016 0.44596 0.37109 1.0693 0.55664 1.8701 0.55664 0.80728 0 1.4062-0.16439 1.7969-0.49317 0.39062-0.32877 0.58593-0.71451 0.58594-1.1572-0.00001-0.39713-0.17253-0.70963-0.51758-0.9375-0.24089-0.15625-0.83985-0.35482-1.7969-0.59571-1.2891-0.32551-2.1826-0.60709-2.6807-0.84472-0.49804-0.23763-0.87565-0.5664-1.1328-0.98633-0.25716-0.41992-0.38574-0.88378-0.38574-1.3916 0-0.46223 0.10579-0.89029 0.31738-1.2842 0.21159-0.39387 0.49968-0.72102 0.86426-0.98145 0.27344-0.20181 0.64616-0.37271 1.1182-0.51269 0.47201-0.13997 0.97819-0.20995 1.5186-0.20996 0.8138 0.00001 1.5283 0.1172 2.1436 0.35156 0.61523 0.23438 1.0693 0.55177 1.3623 0.95215 0.29296 0.4004 0.49478 0.93588 0.60547 1.6064l-1.7188 0.23438c-0.0781-0.53385-0.30437-0.95051-0.67871-1.25-0.37436-0.29947-0.90333-0.44921-1.5869-0.44922-0.80729 0.00001-1.3835 0.13347-1.7285 0.40039-0.34506 0.26694-0.51758 0.57944-0.51758 0.9375 0 0.22787 0.0716 0.43295 0.21484 0.61523 0.14323 0.18881 0.36784 0.34506 0.67383 0.46875 0.17578 0.0651 0.69336 0.21485 1.5527 0.44922 1.2435 0.33204 2.111 0.60385 2.6025 0.81543 0.49153 0.2116 0.87727 0.51921 1.1572 0.92285 0.27994 0.40365 0.41991 0.90496 0.41992 1.5039-0.00001 0.58594-0.17091 1.1377-0.51269 1.6553-0.34181 0.51758-0.83497 0.91797-1.4795 1.2012-0.64453 0.2832-1.3737 0.4248-2.1875 0.4248-1.3477 0-2.3747-0.27995-3.081-0.83984-0.70638-0.5599-1.1572-1.39-1.3525-2.4902z"/>
      <path id="path2865" style="fill:#0000ff" d="m267.99 856.33 1.7871-0.15625c0.0846 0.71615 0.28157 1.3037 0.59082 1.7627 0.30924 0.45899 0.78938 0.83008 1.4404 1.1133 0.65103 0.28321 1.3835 0.42481 2.1973 0.42481 0.72265 0 1.3607-0.10742 1.9141-0.32227 0.55337-0.21484 0.96516-0.50944 1.2354-0.88379 0.27017-0.37434 0.40526-0.78287 0.40527-1.2256-0.00001-0.44922-0.13022-0.84147-0.39062-1.1768-0.26043-0.33528-0.69012-0.61686-1.2891-0.84473-0.38412-0.14973-1.2337-0.38248-2.5488-0.69824-1.3151-0.31575-2.2363-0.6136-2.7637-0.89355-0.68359-0.35807-1.193-0.8024-1.5283-1.333-0.33528-0.53059-0.50293-1.1247-0.50293-1.7822 0-0.72264 0.20508-1.3981 0.61524-2.0264 0.41015-0.62824 1.0091-1.1051 1.7969-1.4307 0.78776-0.32551 1.6634-0.48827 2.627-0.48828 1.0612 0.00001 1.9971 0.17091 2.8076 0.51269 0.81054 0.34181 1.4339 0.84474 1.8701 1.5088 0.43619 0.66408 0.67056 1.416 0.70313 2.2559l-1.8164 0.13672c-0.0977-0.90494-0.42807-1.5885-0.99121-2.0508-0.56316-0.46223-1.3949-0.69335-2.4951-0.69336-1.1458 0.00001-1.9808 0.20997-2.5049 0.62988-0.52409 0.41994-0.78614 0.92612-0.78613 1.5186-0.00001 0.51433 0.18554 0.93751 0.55664 1.2695 0.36458 0.33204 1.3167 0.67221 2.8564 1.0205 1.5397 0.34831 2.596 0.65267 3.169 0.91308 0.83332 0.38413 1.4486 0.87078 1.8457 1.46 0.39712 0.5892 0.59569 1.2679 0.5957 2.0361-0.00001 0.76172-0.21811 1.4795-0.65429 2.1533-0.43621 0.67383-1.0628 1.1979-1.8799 1.5723-0.81706 0.37435-1.7367 0.56153-2.7588 0.56153-1.2956 0-2.3812-0.18881-3.2568-0.56641-0.87566-0.3776-1.5625-0.94564-2.0606-1.7041-0.49805-0.75846-0.76009-1.6162-0.78613-2.5732z"/>
      <path id="path2867" style="fill:#0000ff" d="m285.61 859.36 0.2539 1.5527c-0.49479 0.10417-0.9375 0.15625-1.3281 0.15625-0.63803 0-1.1328-0.10091-1.4844-0.30273-0.35156-0.20182-0.59896-0.46712-0.74218-0.7959-0.14324-0.32877-0.21485-1.0205-0.21485-2.0752v-5.9668h-1.2891v-1.3672h1.2891v-2.5684l1.748-1.0547v3.623h1.7676v1.3672h-1.7676v6.0644c-0.00001 0.50131 0.0309 0.82357 0.0928 0.9668 0.0618 0.14323 0.16276 0.25716 0.30274 0.3418 0.13997 0.0846 0.34016 0.12695 0.60058 0.12695 0.19531 0 0.45247-0.0228 0.77149-0.0684z"/>
      <path id="path2869" style="fill:#0000ff" d="m287.3 860.93v-10.371h1.582v1.5723c0.40364-0.73567 0.77636-1.2207 1.1182-1.4551 0.3418-0.23436 0.71777-0.35155 1.1279-0.35156 0.59245 0.00001 1.1947 0.18881 1.8066 0.5664l-0.60547 1.6309c-0.4297-0.25389-0.85938-0.38085-1.2891-0.38086-0.38412 0.00001-0.72917 0.11557-1.0352 0.34668-0.306 0.23113-0.52409 0.55177-0.6543 0.96192-0.19531 0.625-0.29297 1.3086-0.29297 2.0508v5.4297z"/>
      <path id="path2871" style="fill:#0000ff" d="m294.01 848.64v-2.0215h1.7578v2.0215zm0 12.295v-10.371h1.7578v10.371z"/>
      <path id="path2873" style="fill:#0000ff" d="m298.45 860.93v-10.371h1.582v1.4746c0.76172-1.1393 1.862-1.709 3.3008-1.709 0.62499 0.00001 1.1995 0.11231 1.7236 0.33691 0.52408 0.22462 0.91633 0.51922 1.1768 0.88379 0.2604 0.36459 0.4427 0.79753 0.54687 1.2988 0.0651 0.32553 0.0976 0.89519 0.0977 1.709v6.377h-1.7578v-6.3086c-0.00001-0.71614-0.0684-1.2516-0.20508-1.6064-0.13673-0.35481-0.37924-0.63802-0.72754-0.84961-0.34832-0.21158-0.75684-0.31738-1.2256-0.31739-0.7487 0.00001-1.3949 0.23764-1.9385 0.7129-0.54363 0.47526-0.81544 1.377-0.81543 2.7051v5.6641z"/>
      <path id="path2875" style="fill:#0000ff" d="m309.26 861.79 1.709 0.25391c0.0716 0.52734 0.27018 0.91145 0.59571 1.1523 0.43619 0.32552 1.0319 0.48828 1.7871 0.48828 0.81379 0 1.442-0.16276 1.8848-0.48828 0.4427-0.32552 0.74218-0.78125 0.89844-1.3672 0.0911-0.35807 0.13346-1.11 0.12695-2.2559-0.76823 0.90495-1.7253 1.3574-2.8711 1.3574-1.4258 0-2.5293-0.51433-3.3106-1.543-0.78125-1.0286-1.1719-2.2624-1.1719-3.7012 0-0.98958 0.17903-1.9027 0.53711-2.7393 0.35807-0.83658 0.87727-1.4827 1.5576-1.9385 0.68034-0.45572 1.4795-0.68358 2.3975-0.68359 1.224 0.00001 2.2331 0.4948 3.0273 1.4844v-1.25h1.6211v8.9648c-0.00001 1.6146-0.1644 2.7588-0.49316 3.4326-0.32879 0.67383-0.84962 1.206-1.5625 1.5967-0.7129 0.39062-1.5902 0.58594-2.6318 0.58594-1.237 0-2.2363-0.27832-2.998-0.83496-0.76172-0.55664-1.1296-1.3949-1.1035-2.5146zm1.4551-6.2305c0 1.3607 0.27018 2.3535 0.81055 2.9785 0.54036 0.625 1.2174 0.9375 2.0312 0.9375 0.80728 0 1.4844-0.31087 2.0312-0.93262 0.54686-0.62174 0.8203-1.5967 0.82031-2.9248-0.00001-1.2695-0.28159-2.2266-0.84473-2.8711-0.56316-0.64452-1.2419-0.96679-2.0361-0.96679-0.78126 0-1.4453 0.31739-1.9922 0.95214-0.54688 0.63478-0.82031 1.5772-0.82031 2.8272z"/>
      <path id="path2877" d="m152.75 885.93v-14.316h1.7578v5.1367c0.82031-0.95051 1.8555-1.4258 3.1055-1.4258 0.76822 0.00001 1.4355 0.15137 2.002 0.4541 0.5664 0.30274 0.97167 0.72104 1.2158 1.2549s0.3662 1.3086 0.36621 2.3242v6.5723h-1.7578v-6.5723c-0.00001-0.8789-0.19044-1.5186-0.57129-1.919-0.38086-0.40038-0.9196-0.60057-1.6162-0.60058-0.52084 0.00001-1.0108 0.1351-1.4697 0.40527-0.45898 0.27019-0.78613 0.6364-0.98144 1.0986-0.19532 0.46224-0.29297 1.1003-0.29297 1.9141v5.6738z"/>
      <path id="path2879" d="m170.98 882.59 1.8164 0.22461c-0.28647 1.0612-0.81707 1.8848-1.5918 2.4707-0.77475 0.58594-1.7643 0.87891-2.9688 0.87891-1.5169 0-2.7197-0.46712-3.6084-1.4014-0.88867-0.93424-1.333-2.2445-1.333-3.9307 0-1.7448 0.44922-3.099 1.3477-4.0625 0.89843-0.96353 2.0638-1.4453 3.4961-1.4453 1.3867 0.00001 2.5195 0.47201 3.3984 1.416 0.8789 0.94402 1.3184 2.2722 1.3184 3.9844-0.00001 0.10417-0.003 0.26042-0.01 0.46875h-7.7344c0.0651 1.1393 0.38737 2.0117 0.9668 2.6172 0.57942 0.60547 1.3021 0.9082 2.168 0.9082 0.64452 0 1.1946-0.16927 1.6504-0.50781 0.45572-0.33854 0.81704-0.87891 1.084-1.6211zm-5.7715-2.8418h5.791c-0.0781-0.87239-0.29949-1.5267-0.66406-1.9629-0.5599-0.67707-1.2858-1.0156-2.1777-1.0156-0.80729 0.00001-1.486 0.27019-2.0361 0.81055-0.55013 0.54037-0.85449 1.263-0.91308 2.168z"/>
      <path id="path2881" d="m174.97 885.93v-14.316h1.7578v14.316z"/>
      <path id="path2883" d="m179.43 885.93v-14.316h1.7578v14.316z"/>
      <path id="path2885" d="m183.26 880.75c0-1.9206 0.53385-3.3431 1.6016-4.2676 0.89192-0.76822 1.9792-1.1523 3.2617-1.1523 1.4258 0.00001 2.5911 0.46713 3.4961 1.4014 0.90494 0.93426 1.3574 2.225 1.3574 3.8721-0.00001 1.3346-0.2002 2.3844-0.60058 3.1494-0.4004 0.76497-0.98308 1.359-1.748 1.7822-0.76498 0.42317-1.5999 0.63476-2.5049 0.63476-1.4518 0-2.6253-0.46549-3.5205-1.3965-0.89518-0.93099-1.3428-2.2721-1.3428-4.0234zm1.8066 0c-0.00001 1.3281 0.28971 2.3226 0.86914 2.9834 0.57942 0.66081 1.3086 0.99121 2.1875 0.99121 0.87239 0 1.5983-0.33203 2.1777-0.9961 0.57942-0.66406 0.86913-1.6764 0.86914-3.0371-0.00001-1.2826-0.29135-2.2542-0.87402-2.915-0.58269-0.6608-1.307-0.99121-2.1728-0.99121-0.87891 0-1.6081 0.32878-2.1875 0.98632-0.57943 0.65756-0.86915 1.6504-0.86914 2.9785z"/>
      <path id="path2887" d="m209.85 877.52h-9.4531v-1.6406h9.4531zm0 4.3457h-9.4531v-1.6406h9.4531z"/>
      <path id="path2889" style="fill:#ff2a2a" d="m217.91 876.69-0.48828-2.7246v-2.3438h2.002v2.3438l-0.43946 2.7246zm3.2324 0-0.47852-2.7246v-2.3438h2.002v2.3438l-0.46875 2.7246z"/>
      <path id="path2891" style="fill:#ff2a2a" d="m227.66 885.93-3.7988-14.316h1.9434l2.1777 9.3848c0.23437 0.98307 0.4362 1.9596 0.60547 2.9297 0.36458-1.5299 0.57942-2.4121 0.64453-2.6465l2.7246-9.668h2.2852l2.0508 7.2461c0.51431 1.7969 0.8854 3.4863 1.1133 5.0684 0.18228-0.90494 0.41991-1.9434 0.71289-3.1152l2.2461-9.1992h1.9043l-3.9258 14.316h-1.8262l-3.0176-10.908c-0.25391-0.91144-0.40365-1.4713-0.44922-1.6797-0.14975 0.65756-0.28972 1.2174-0.41992 1.6797l-3.0371 10.908z"/>
      <path id="path2893" style="fill:#ff2a2a" d="m243.15 880.75c0-1.9206 0.53385-3.3431 1.6016-4.2676 0.89193-0.76822 1.9792-1.1523 3.2617-1.1523 1.4258 0.00001 2.5911 0.46713 3.4961 1.4014 0.90494 0.93426 1.3574 2.225 1.3574 3.8721-0.00001 1.3346-0.20021 2.3844-0.60059 3.1494-0.4004 0.76497-0.98308 1.359-1.748 1.7822-0.76498 0.42317-1.5999 0.63476-2.5049 0.63476-1.4518 0-2.6253-0.46549-3.5205-1.3965-0.89518-0.93099-1.3428-2.2721-1.3428-4.0234zm1.8066 0c0 1.3281 0.28971 2.3226 0.86914 2.9834 0.57942 0.66081 1.3086 0.99121 2.1875 0.99121 0.87239 0 1.5983-0.33203 2.1777-0.9961 0.57942-0.66406 0.86914-1.6764 0.86915-3.0371-0.00001-1.2826-0.29135-2.2542-0.87403-2.915-0.58269-0.6608-1.307-0.99121-2.1728-0.99121-0.87891 0-1.6081 0.32878-2.1875 0.98632-0.57943 0.65756-0.86914 1.6504-0.86914 2.9785z"/>
      <path id="path2895" style="fill:#ff2a2a" d="m254.91 885.93v-10.371h1.582v1.5723c0.40364-0.73567 0.77636-1.2207 1.1182-1.4551 0.34179-0.23436 0.71777-0.35155 1.1279-0.35156 0.59244 0.00001 1.1947 0.18881 1.8066 0.5664l-0.60547 1.6309c-0.42969-0.25389-0.85938-0.38085-1.2891-0.38086-0.38412 0.00001-0.72917 0.11557-1.0352 0.34668-0.306 0.23113-0.5241 0.55177-0.6543 0.96192-0.19532 0.625-0.29297 1.3086-0.29297 2.0508v5.4297z"/>
      <path id="path2897" style="fill:#ff2a2a" d="m261.58 885.93v-14.316h1.7578v14.316z"/>
      <path id="path2899" style="fill:#ff2a2a" d="m272.8 885.93v-1.3086c-0.65756 1.0286-1.6244 1.543-2.9004 1.543-0.82683 0-1.5869-0.22786-2.2803-0.68359-0.69336-0.45573-1.2305-1.0921-1.6113-1.9092-0.38086-0.81706-0.57129-1.7562-0.57128-2.8174-0.00001-1.0352 0.17252-1.9743 0.51757-2.8174 0.34505-0.84309 0.86263-1.4892 1.5527-1.9385 0.6901-0.44921 1.4616-0.67382 2.3144-0.67383 0.625 0.00001 1.1816 0.13184 1.6699 0.3955 0.48828 0.26369 0.88541 0.60711 1.1914 1.0303v-5.1367h1.748v14.316zm-5.5566-5.1758c-0.00001 1.3281 0.27994 2.321 0.83984 2.9785 0.55989 0.65755 1.2207 0.98633 1.9824 0.98633 0.76822 0 1.4209-0.31413 1.958-0.94238 0.5371-0.62826 0.80566-1.5869 0.80566-2.876 0-1.4193-0.27344-2.4609-0.82031-3.125-0.54688-0.66405-1.2207-0.99609-2.0215-0.99609-0.78126 0-1.4339 0.31901-1.958 0.95703-0.52409 0.63802-0.78614 1.6439-0.78613 3.0176z"/>
      <path id="path2901" style="fill:#ff2a2a" d="m277.29 876.69-0.48828-2.7246v-2.3438h2.002v2.3438l-0.43946 2.7246zm3.2324 0-0.47852-2.7246v-2.3438h2.002v2.3438l-0.46875 2.7246z"/>
      <path id="path2903" d="m152.91 910.93v-14.316h2.8516l3.3887 10.137c0.31249 0.94401 0.54035 1.6504 0.68359 2.1191 0.16275-0.52083 0.41666-1.2858 0.76172-2.2949l3.4277-9.9609h2.5488v14.316h-1.8262v-11.982l-4.1602 11.982h-1.709l-4.1406-12.188v12.188z"/>
      <path id="path2905" d="m168.72 907.84 1.7383-0.27343c0.0977 0.69661 0.36947 1.2305 0.81543 1.6016 0.44596 0.37109 1.0693 0.55664 1.8701 0.55664 0.80728 0 1.4062-0.16439 1.7969-0.49317 0.39062-0.32877 0.58593-0.71451 0.58594-1.1572-0.00001-0.39713-0.17253-0.70963-0.51758-0.9375-0.24089-0.15625-0.83985-0.35482-1.7969-0.59571-1.2891-0.32551-2.1826-0.60709-2.6807-0.84472-0.49804-0.23763-0.87565-0.5664-1.1328-0.98633-0.25716-0.41992-0.38574-0.88378-0.38574-1.3916 0-0.46223 0.10579-0.89029 0.31738-1.2842 0.21159-0.39387 0.49968-0.72102 0.86426-0.98145 0.27344-0.20181 0.64616-0.37271 1.1182-0.51269 0.47201-0.13997 0.97819-0.20995 1.5186-0.20996 0.8138 0.00001 1.5283 0.1172 2.1436 0.35156 0.61523 0.23438 1.0693 0.55177 1.3623 0.95215 0.29296 0.4004 0.49478 0.93588 0.60547 1.6064l-1.7188 0.23438c-0.0781-0.53385-0.30437-0.95051-0.67871-1.25-0.37436-0.29947-0.90333-0.44921-1.5869-0.44922-0.80729 0.00001-1.3835 0.13347-1.7285 0.40039-0.34506 0.26694-0.51758 0.57944-0.51758 0.9375 0 0.22787 0.0716 0.43295 0.21484 0.61523 0.14323 0.18881 0.36784 0.34506 0.67383 0.46875 0.17578 0.0651 0.69336 0.21485 1.5527 0.44922 1.2435 0.33204 2.111 0.60385 2.6025 0.81543 0.49153 0.2116 0.87727 0.51921 1.1572 0.92285 0.27994 0.40365 0.41991 0.90496 0.41992 1.5039-0.00001 0.58594-0.17091 1.1377-0.51269 1.6553-0.34181 0.51758-0.83497 0.91797-1.4795 1.2012-0.64453 0.2832-1.3737 0.4248-2.1875 0.4248-1.3477 0-2.3747-0.27995-3.081-0.83984-0.70638-0.5599-1.1572-1.39-1.3525-2.4902z"/>
      <path id="path2907" d="m179.1 911.79 1.709 0.25391c0.0716 0.52734 0.27018 0.91145 0.59571 1.1523 0.43619 0.32552 1.0319 0.48828 1.7871 0.48828 0.81379 0 1.442-0.16276 1.8848-0.48828 0.4427-0.32552 0.74218-0.78125 0.89844-1.3672 0.0911-0.35807 0.13346-1.11 0.12695-2.2559-0.76823 0.90495-1.7253 1.3574-2.8711 1.3574-1.4258 0-2.5293-0.51433-3.3106-1.543-0.78125-1.0286-1.1719-2.2624-1.1719-3.7012 0-0.98958 0.17903-1.9027 0.53711-2.7393 0.35807-0.83658 0.87727-1.4827 1.5576-1.9385 0.68034-0.45572 1.4795-0.68358 2.3975-0.68359 1.224 0.00001 2.2331 0.4948 3.0273 1.4844v-1.25h1.6211v8.9648c-0.00001 1.6146-0.1644 2.7588-0.49316 3.4326-0.32879 0.67383-0.84962 1.206-1.5625 1.5967-0.7129 0.39062-1.5902 0.58594-2.6318 0.58594-1.237 0-2.2363-0.27832-2.998-0.83496-0.76172-0.55664-1.1296-1.3949-1.1035-2.5146zm1.4551-6.2305c0 1.3607 0.27018 2.3535 0.81055 2.9785 0.54036 0.625 1.2174 0.9375 2.0312 0.9375 0.80728 0 1.4844-0.31087 2.0312-0.93262 0.54686-0.62174 0.8203-1.5967 0.82031-2.9248-0.00001-1.2695-0.28159-2.2266-0.84473-2.8711-0.56316-0.64452-1.2419-0.96679-2.0361-0.96679-0.78126 0-1.4453 0.31739-1.9922 0.95214-0.54688 0.63478-0.82031 1.5772-0.82031 2.8272z"/>
      <path id="path2909" d="m190.71 910.93v-14.316h5.3711c1.0937 0.00001 1.971 0.14487 2.6318 0.43457 0.6608 0.28973 1.1784 0.73569 1.5527 1.3379 0.37433 0.60223 0.56151 1.2321 0.56152 1.8896-0.00001 0.61199-0.16603 1.1882-0.49805 1.7285-0.33204 0.54038-0.83334 0.97658-1.5039 1.3086 0.86587 0.25391 1.5316 0.68685 1.9971 1.2988 0.46548 0.61198 0.69823 1.3346 0.69824 2.168-0.00001 0.67057-0.14161 1.2939-0.42481 1.8701-0.28321 0.57618-0.63314 1.0205-1.0498 1.333-0.41668 0.3125-0.93914 0.5485-1.5674 0.70801-0.62827 0.1595-1.3981 0.23926-2.3096 0.23926zm1.8945-8.3008h3.0957c0.83983 0.00001 1.442-0.0553 1.8066-0.16601 0.48176-0.14322 0.84472-0.38085 1.0889-0.71289 0.24414-0.33202 0.36621-0.74869 0.36622-1.25-0.00001-0.47525-0.11395-0.89355-0.3418-1.2549-0.22787-0.36132-0.5534-0.60872-0.97656-0.74219-0.42319-0.13345-1.1491-0.20018-2.1777-0.2002h-2.8613zm0 6.6113h3.5645c0.61197 0 1.0417-0.0228 1.2891-0.0684 0.43619-0.0781 0.80077-0.20833 1.0938-0.39062 0.29296-0.18229 0.53384-0.44759 0.72266-0.7959 0.18879-0.3483 0.28319-0.75032 0.2832-1.206-0.00001-0.53385-0.13673-0.99772-0.41016-1.3916-0.27344-0.39387-0.65268-0.67056-1.1377-0.83007-0.48504-0.1595-1.1833-0.23926-2.0947-0.23926h-3.3106z"/>
      <path id="path2911" d="m203.26 905.75c0-1.9206 0.53385-3.3431 1.6016-4.2676 0.89192-0.76822 1.9792-1.1523 3.2617-1.1523 1.4258 0.00001 2.5911 0.46713 3.4961 1.4014 0.90494 0.93426 1.3574 2.225 1.3574 3.8721-0.00001 1.3346-0.2002 2.3844-0.60058 3.1494-0.4004 0.76497-0.98308 1.359-1.748 1.7822-0.76498 0.42317-1.5999 0.63476-2.5049 0.63476-1.4518 0-2.6253-0.46549-3.5205-1.3965-0.89518-0.93099-1.3428-2.2721-1.3428-4.0234zm1.8066 0c-0.00001 1.3281 0.28971 2.3226 0.86914 2.9834 0.57942 0.66081 1.3086 0.99121 2.1875 0.99121 0.87239 0 1.5983-0.33203 2.1777-0.9961 0.57942-0.66406 0.86913-1.6764 0.86914-3.0371-0.00001-1.2826-0.29135-2.2542-0.87402-2.915-0.58269-0.6608-1.307-0.99121-2.1728-0.99121-0.87891 0-1.6081 0.32878-2.1875 0.98632-0.57943 0.65756-0.86915 1.6504-0.86914 2.9785z"/>
      <path id="path2914" d="m213.88 910.93 3.7891-5.3906-3.5059-4.9805h2.1973l1.5918 2.4316c0.29947 0.46225 0.54036 0.84962 0.72265 1.1621 0.28646-0.42968 0.55013-0.81054 0.79102-1.1426l1.748-2.4512h2.0996l-3.584 4.8828 3.8574 5.4883h-2.1582l-2.1289-3.2227-0.5664-0.86914-2.7246 4.0918z"/>
      <path id="path2917" d="m228.41 915.14c-0.97006-1.224-1.7904-2.6562-2.4609-4.2969-0.67057-1.6406-1.0059-3.3398-1.0059-5.0977 0-1.5495 0.25065-3.0338 0.75196-4.4531 0.58593-1.6471 1.4909-3.2877 2.7148-4.9219h1.2598c-0.78777 1.3542-1.3086 2.321-1.5625 2.9004-0.39714 0.89845-0.70964 1.836-0.9375 2.8125-0.27995 1.2175-0.41993 2.4414-0.41993 3.6719 0 3.1315 0.97331 6.2598 2.9199 9.3848z"/>
      <path id="path2919" style="fill:#ff2a2a" d="m231.82 901.69-0.48828-2.7246v-2.3438h2.002v2.3438l-0.43946 2.7246zm3.2324 0-0.47852-2.7246v-2.3438h2.002v2.3438l-0.46875 2.7246z"/>
      <path id="path2921" style="fill:#ff2a2a" d="m239.12 910.93v-14.316h1.8945v5.8789h7.4414v-5.8789h1.8945v14.316h-1.8945v-6.748h-7.4414v6.748z"/>
      <path id="path2923" style="fill:#ff2a2a" d="m260.39 907.59 1.8164 0.22461c-0.28647 1.0612-0.81707 1.8848-1.5918 2.4707-0.77475 0.58594-1.7643 0.87891-2.9688 0.87891-1.5169 0-2.7197-0.46712-3.6084-1.4014-0.88867-0.93424-1.333-2.2445-1.333-3.9307 0-1.7448 0.44921-3.099 1.3476-4.0625 0.89844-0.96353 2.0638-1.4453 3.4961-1.4453 1.3867 0.00001 2.5195 0.47201 3.3984 1.416 0.8789 0.94402 1.3184 2.2722 1.3184 3.9844-0.00001 0.10417-0.003 0.26042-0.01 0.46875h-7.7344c0.0651 1.1393 0.38737 2.0117 0.9668 2.6172 0.57942 0.60547 1.3021 0.9082 2.168 0.9082 0.64452 0 1.1946-0.16927 1.6504-0.50781 0.45572-0.33854 0.81705-0.87891 1.084-1.6211zm-5.7715-2.8418h5.791c-0.0781-0.87239-0.29948-1.5267-0.66406-1.9629-0.5599-0.67707-1.2858-1.0156-2.1777-1.0156-0.8073 0.00001-1.486 0.27019-2.0361 0.81055-0.55013 0.54037-0.85449 1.263-0.91308 2.168z"/>
      <path id="path2925" style="fill:#ff2a2a" d="m264.39 910.93v-14.316h1.7578v14.316z"/>
      <path id="path2927" style="fill:#ff2a2a" d="m268.84 910.93v-14.316h1.7578v14.316z"/>
      <path id="path2929" style="fill:#ff2a2a" d="m272.68 905.75c0-1.9206 0.53385-3.3431 1.6016-4.2676 0.89193-0.76822 1.9792-1.1523 3.2617-1.1523 1.4258 0.00001 2.5911 0.46713 3.4961 1.4014 0.90494 0.93426 1.3574 2.225 1.3574 3.8721-0.00001 1.3346-0.20021 2.3844-0.60059 3.1494-0.4004 0.76497-0.98308 1.359-1.748 1.7822-0.76498 0.42317-1.5999 0.63476-2.5049 0.63476-1.4518 0-2.6253-0.46549-3.5205-1.3965-0.89518-0.93099-1.3428-2.2721-1.3428-4.0234zm1.8066 0c0 1.3281 0.28971 2.3226 0.86914 2.9834 0.57942 0.66081 1.3086 0.99121 2.1875 0.99121 0.87239 0 1.5983-0.33203 2.1777-0.9961 0.57942-0.66406 0.86914-1.6764 0.86915-3.0371-0.00001-1.2826-0.29135-2.2542-0.87403-2.915-0.58269-0.6608-1.307-0.99121-2.1728-0.99121-0.87891 0-1.6081 0.32878-2.1875 0.98632-0.57943 0.65756-0.86914 1.6504-0.86914 2.9785z"/>
      <path id="path2931" style="fill:#ff2a2a" d="m292.74 910.93-3.7988-14.316h1.9434l2.1777 9.3848c0.23437 0.98307 0.43619 1.9596 0.60547 2.9297 0.36457-1.5299 0.57942-2.4121 0.64453-2.6465l2.7246-9.668h2.2852l2.0508 7.2461c0.5143 1.7969 0.8854 3.4863 1.1133 5.0684 0.18227-0.90494 0.4199-1.9434 0.71289-3.1152l2.2461-9.1992h1.9043l-3.9258 14.316h-1.8262l-3.0176-10.908c-0.25392-0.91144-0.40366-1.4713-0.44922-1.6797-0.14975 0.65756-0.28973 1.2174-0.41992 1.6797l-3.0371 10.908z"/>
      <path id="path2933" style="fill:#ff2a2a" d="m308.23 905.75c0-1.9206 0.53386-3.3431 1.6016-4.2676 0.89192-0.76822 1.9792-1.1523 3.2617-1.1523 1.4258 0.00001 2.5911 0.46713 3.4961 1.4014 0.90494 0.93426 1.3574 2.225 1.3574 3.8721-0.00001 1.3346-0.2002 2.3844-0.60059 3.1494-0.4004 0.76497-0.98308 1.359-1.748 1.7822-0.76498 0.42317-1.5999 0.63476-2.5049 0.63476-1.4518 0-2.6253-0.46549-3.5205-1.3965-0.89519-0.93099-1.3428-2.2721-1.3428-4.0234zm1.8066 0c0 1.3281 0.28972 2.3226 0.86915 2.9834 0.57942 0.66081 1.3086 0.99121 2.1875 0.99121 0.87238 0 1.5983-0.33203 2.1777-0.9961 0.57942-0.66406 0.86913-1.6764 0.86914-3.0371-0.00001-1.2826-0.29135-2.2542-0.87402-2.915-0.58269-0.6608-1.307-0.99121-2.1728-0.99121-0.87892 0-1.6081 0.32878-2.1875 0.98632-0.57943 0.65756-0.86915 1.6504-0.86915 2.9785z"/>
      <path id="path2935" style="fill:#ff2a2a" d="m319.99 910.93v-10.371h1.582v1.5723c0.40365-0.73567 0.77637-1.2207 1.1182-1.4551 0.34179-0.23436 0.71777-0.35155 1.1279-0.35156 0.59244 0.00001 1.1946 0.18881 1.8066 0.5664l-0.60547 1.6309c-0.42969-0.25389-0.85938-0.38085-1.2891-0.38086-0.38412 0.00001-0.72917 0.11557-1.0352 0.34668-0.30599 0.23113-0.52409 0.55177-0.6543 0.96192-0.19531 0.625-0.29297 1.3086-0.29297 2.0508v5.4297z"/>
      <path id="path2937" style="fill:#ff2a2a" d="m326.65 910.93v-14.316h1.7578v14.316z"/>
      <path id="path2939" style="fill:#ff2a2a" d="m337.87 910.93v-1.3086c-0.65756 1.0286-1.6244 1.543-2.9004 1.543-0.82683 0-1.5869-0.22786-2.2803-0.68359-0.69336-0.45573-1.2305-1.0921-1.6113-1.9092-0.38086-0.81706-0.57129-1.7562-0.57129-2.8174 0-1.0352 0.17253-1.9743 0.51758-2.8174 0.34505-0.84309 0.86263-1.4892 1.5527-1.9385 0.6901-0.44921 1.4616-0.67382 2.3145-0.67383 0.62499 0.00001 1.1816 0.13184 1.6699 0.3955 0.48827 0.26369 0.88541 0.60711 1.1914 1.0303v-5.1367h1.748v14.316zm-5.5566-5.1758c0 1.3281 0.27995 2.321 0.83984 2.9785 0.5599 0.65755 1.2207 0.98633 1.9824 0.98633 0.76822 0 1.4209-0.31413 1.958-0.94238 0.53711-0.62826 0.80566-1.5869 0.80567-2.876-0.00001-1.4193-0.27345-2.4609-0.82031-3.125-0.54689-0.66405-1.2207-0.99609-2.0215-0.99609-0.78125 0-1.4339 0.31901-1.958 0.95703-0.52409 0.63802-0.78613 1.6439-0.78613 3.0176z"/>
      <path id="path2941" style="fill:#ff2a2a" d="m342.37 901.69-0.48828-2.7246v-2.3438h2.002v2.3438l-0.43945 2.7246zm3.2324 0-0.47851-2.7246v-2.3438h2.002v2.3438l-0.46875 2.7246z"/>
      <path id="path2943" d="m350.54 915.14h-1.2598c1.9466-3.125 2.9199-6.2532 2.9199-9.3848 0-1.224-0.13997-2.4381-0.41992-3.6426-0.22136-0.97656-0.5306-1.9141-0.92773-2.8125-0.25391-0.58593-0.778-1.5625-1.5723-2.9297h1.2598c1.224 1.6341 2.1289 3.2748 2.7148 4.9219 0.5013 1.4193 0.75195 2.9037 0.75195 4.4531 0 1.7578-0.33692 3.457-1.0107 5.0977-0.67383 1.6406-1.4925 3.0729-2.456 4.2969z"/>
      <path id="path2945" style="fill:#00aa00" d="m152.76 926.69-0.44921-2.6758v-2.3926h2.002v2.3926l-0.46875 2.6758z"/>
      <path id="path2947" style="fill:#00aa00" d="m156.84 935.93v-14.316h10.352v1.6894h-8.457v4.3848h7.9199v1.6797h-7.9199v4.873h8.7891v1.6895z"/>
      <path id="path2949" style="fill:#00aa00" d="m169.93 935.93v-10.371h1.582v1.4746c0.76171-1.1393 1.862-1.709 3.3008-1.709 0.62499 0.00001 1.1995 0.11231 1.7236 0.33691 0.52408 0.22462 0.91634 0.51922 1.1768 0.88379 0.26041 0.36459 0.4427 0.79753 0.54688 1.2988 0.0651 0.32553 0.0976 0.89519 0.0976 1.709v6.377h-1.7578v-6.3086c-0.00001-0.71614-0.0684-1.2516-0.20508-1.6064-0.13672-0.35481-0.37924-0.63802-0.72754-0.84961-0.34831-0.21158-0.75684-0.31738-1.2256-0.31739-0.74871 0.00001-1.3949 0.23764-1.9385 0.7129-0.54362 0.47526-0.81543 1.377-0.81543 2.7051v5.6641z"/>
      <path id="path2951" style="fill:#00aa00" d="m187.8 935.93v-1.3086c-0.65756 1.0286-1.6244 1.543-2.9004 1.543-0.82683 0-1.5869-0.22786-2.2803-0.68359-0.69336-0.45573-1.2305-1.0921-1.6113-1.9092-0.38086-0.81706-0.57129-1.7562-0.57128-2.8174-0.00001-1.0352 0.17252-1.9743 0.51757-2.8174 0.34505-0.84309 0.86263-1.4892 1.5527-1.9385 0.6901-0.44921 1.4616-0.67382 2.3144-0.67383 0.625 0.00001 1.1816 0.13184 1.6699 0.3955 0.48828 0.26369 0.88541 0.60711 1.1914 1.0303v-5.1367h1.748v14.316zm-5.5566-5.1758c-0.00001 1.3281 0.27994 2.321 0.83984 2.9785 0.55989 0.65755 1.2207 0.98633 1.9824 0.98633 0.76822 0 1.4209-0.31413 1.958-0.94238 0.5371-0.62826 0.80566-1.5869 0.80566-2.876 0-1.4193-0.27344-2.4609-0.82031-3.125-0.54688-0.66405-1.2207-0.99609-2.0215-0.99609-0.78126 0-1.4339 0.31901-1.958 0.95703-0.52409 0.63802-0.78614 1.6439-0.78613 3.0176z"/>
      <path id="path2953" style="fill:#00aa00" d="m197.09 930.75c0-1.9206 0.53385-3.3431 1.6016-4.2676 0.89193-0.76822 1.9792-1.1523 3.2617-1.1523 1.4258 0.00001 2.5911 0.46713 3.4961 1.4014 0.90493 0.93426 1.3574 2.225 1.3574 3.8721-0.00001 1.3346-0.20021 2.3844-0.60059 3.1494-0.4004 0.76497-0.98308 1.359-1.748 1.7822-0.76499 0.42317-1.6 0.63476-2.5049 0.63476-1.4518 0-2.6253-0.46549-3.5205-1.3965-0.89518-0.93099-1.3428-2.2721-1.3428-4.0234zm1.8066 0c0 1.3281 0.28971 2.3226 0.86914 2.9834 0.57943 0.66081 1.3086 0.99121 2.1875 0.99121 0.87239 0 1.5983-0.33203 2.1777-0.9961 0.57942-0.66406 0.86913-1.6764 0.86914-3.0371-0.00001-1.2826-0.29135-2.2542-0.87403-2.915-0.58269-0.6608-1.307-0.99121-2.1728-0.99121-0.87891 0-1.6081 0.32878-2.1875 0.98632-0.57943 0.65756-0.86914 1.6504-0.86914 2.9785z"/>
      <path id="path2955" style="fill:#00aa00" d="m209.3 935.93v-9.0039h-1.5527v-1.3672h1.5527v-1.1035c0-0.69661 0.0618-1.2142 0.18555-1.5527 0.16927-0.45571 0.46712-0.82518 0.89355-1.1084 0.42643-0.28319 1.0238-0.42479 1.792-0.4248 0.49478 0.00001 1.0417 0.0586 1.6406 0.17578l-0.26367 1.5332c-0.36459-0.0651-0.70964-0.0976-1.0352-0.0976-0.53386 0.00001-0.91146 0.11394-1.1328 0.34179-0.22136 0.22788-0.33203 0.65431-0.33203 1.2793v0.95703h2.0215v1.3672h-2.0215v9.0039z"/>
      <path id="path2957" style="fill:#00aa00" d="m220.2 935.93v-14.316h5.4004c0.95051 0.00001 1.6764 0.0456 2.1777 0.13672 0.70311 0.1172 1.2923 0.34018 1.7676 0.66894 0.47525 0.32879 0.85774 0.7894 1.1475 1.3818 0.28971 0.59246 0.43456 1.2435 0.43457 1.9531-0.00001 1.2175-0.38738 2.2477-1.1621 3.0908-0.77476 0.84311-2.1745 1.2647-4.1992 1.2646h-3.6719v5.8203zm1.8945-7.5098h3.7012c1.224 0.00001 2.0931-0.22786 2.6074-0.68359 0.51431-0.45572 0.77147-1.097 0.77148-1.9238-0.00001-0.59895-0.15138-1.1116-0.4541-1.5381-0.30275-0.42642-0.70151-0.70799-1.1963-0.84472-0.31902-0.0846-0.90821-0.12694-1.7676-0.12696h-3.6621z"/>
      <path id="path2959" style="fill:#00aa00" d="m233.31 935.93v-10.371h1.582v1.5723c0.40364-0.73567 0.77636-1.2207 1.1182-1.4551 0.34179-0.23436 0.71777-0.35155 1.1279-0.35156 0.59244 0.00001 1.1946 0.18881 1.8066 0.5664l-0.60547 1.6309c-0.42969-0.25389-0.85938-0.38085-1.2891-0.38086-0.38412 0.00001-0.72917 0.11557-1.0352 0.34668-0.30599 0.23113-0.52409 0.55177-0.65429 0.96192-0.19532 0.625-0.29298 1.3086-0.29297 2.0508v5.4297z"/>
      <path id="path2961" style="fill:#00aa00" d="m239.36 930.75c0-1.9206 0.53385-3.3431 1.6016-4.2676 0.89192-0.76822 1.9792-1.1523 3.2617-1.1523 1.4258 0.00001 2.5911 0.46713 3.4961 1.4014 0.90494 0.93426 1.3574 2.225 1.3574 3.8721-0.00001 1.3346-0.2002 2.3844-0.60058 3.1494-0.4004 0.76497-0.98308 1.359-1.748 1.7822-0.76498 0.42317-1.5999 0.63476-2.5049 0.63476-1.4518 0-2.6253-0.46549-3.5205-1.3965-0.89518-0.93099-1.3428-2.2721-1.3428-4.0234zm1.8066 0c-0.00001 1.3281 0.28971 2.3226 0.86914 2.9834 0.57942 0.66081 1.3086 0.99121 2.1875 0.99121 0.87239 0 1.5983-0.33203 2.1777-0.9961 0.57942-0.66406 0.86913-1.6764 0.86914-3.0371-0.00001-1.2826-0.29135-2.2542-0.87402-2.915-0.58269-0.6608-1.307-0.99121-2.1728-0.99121-0.87891 0-1.6081 0.32878-2.1875 0.98632-0.57943 0.65756-0.86915 1.6504-0.86914 2.9785z"/>
      <path id="path2963" style="fill:#00aa00" d="m250.82 936.79 1.709 0.25391c0.0716 0.52734 0.27018 0.91145 0.59571 1.1523 0.43619 0.32552 1.0319 0.48828 1.7871 0.48828 0.81379 0 1.442-0.16276 1.8848-0.48828 0.4427-0.32552 0.74218-0.78125 0.89844-1.3672 0.0911-0.35807 0.13346-1.11 0.12695-2.2559-0.76823 0.90495-1.7253 1.3574-2.8711 1.3574-1.4258 0-2.5293-0.51433-3.3106-1.543-0.78125-1.0286-1.1719-2.2624-1.1719-3.7012 0-0.98958 0.17903-1.9027 0.53711-2.7393 0.35807-0.83658 0.87727-1.4827 1.5576-1.9385 0.68034-0.45572 1.4795-0.68358 2.3975-0.68359 1.224 0.00001 2.2331 0.4948 3.0273 1.4844v-1.25h1.6211v8.9648c-0.00001 1.6146-0.1644 2.7588-0.49316 3.4326-0.32879 0.67383-0.84962 1.206-1.5625 1.5967-0.7129 0.39062-1.5902 0.58594-2.6318 0.58594-1.237 0-2.2363-0.27832-2.998-0.83496-0.76172-0.55664-1.1296-1.3949-1.1035-2.5146zm1.4551-6.2305c0 1.3607 0.27018 2.3535 0.81055 2.9785 0.54036 0.625 1.2174 0.9375 2.0312 0.9375 0.80728 0 1.4844-0.31087 2.0312-0.93262 0.54686-0.62174 0.8203-1.5967 0.82031-2.9248-0.00001-1.2695-0.28159-2.2266-0.84473-2.8711-0.56316-0.64452-1.2419-0.96679-2.0361-0.96679-0.78126 0-1.4453 0.31739-1.9922 0.95214-0.54688 0.63478-0.82031 1.5772-0.82031 2.8272z"/>
      <path id="path2965" style="fill:#00aa00" d="m262.26 935.93v-10.371h1.582v1.5723c0.40364-0.73567 0.77636-1.2207 1.1182-1.4551 0.34179-0.23436 0.71777-0.35155 1.1279-0.35156 0.59244 0.00001 1.1947 0.18881 1.8066 0.5664l-0.60547 1.6309c-0.42969-0.25389-0.85938-0.38085-1.2891-0.38086-0.38412 0.00001-0.72917 0.11557-1.0352 0.34668-0.306 0.23113-0.5241 0.55177-0.6543 0.96192-0.19532 0.625-0.29297 1.3086-0.29297 2.0508v5.4297z"/>
      <path id="path2967" style="fill:#00aa00" d="m275.73 934.65c-0.65105 0.55339-1.2777 0.94401-1.8799 1.1719-0.60222 0.22787-1.2484 0.3418-1.9385 0.3418-1.1393 0-2.015-0.27832-2.627-0.83496-0.61198-0.55664-0.91797-1.2679-0.91797-2.1338 0-0.50781 0.11556-0.97168 0.34668-1.3916s0.53385-0.75683 0.90821-1.0107c0.37434-0.2539 0.79589-0.44596 1.2646-0.57617 0.34505-0.0911 0.86589-0.17904 1.5625-0.26368 1.4193-0.16926 2.4642-0.37108 3.1348-0.60547 0.007-0.24087 0.01-0.39387 0.01-0.45898-0.00001-0.71614-0.16603-1.2207-0.49805-1.5137-0.44923-0.39713-1.1165-0.5957-2.002-0.5957-0.82683 0-1.4372 0.14486-1.8311 0.43457-0.39388 0.28972-0.68522 0.80241-0.87402 1.5381l-1.7188-0.23437c0.15625-0.73567 0.41341-1.3298 0.77148-1.7822 0.35807-0.45246 0.87565-0.80077 1.5527-1.0449 0.67708-0.24413 1.4616-0.3662 2.3535-0.36621 0.88541 0.00001 1.6048 0.10417 2.1582 0.3125 0.55338 0.20834 0.96028 0.47038 1.2207 0.78613 0.2604 0.31576 0.4427 0.71453 0.54687 1.1963 0.0586 0.29949 0.0879 0.83985 0.0879 1.6211v2.3438c-0.00001 1.6341 0.0374 2.6676 0.11231 3.1006 0.0749 0.43294 0.22297 0.84798 0.44433 1.2451h-1.8359c-0.1823-0.36459-0.29949-0.79102-0.35157-1.2793zm-0.14648-3.9258c-0.63803 0.26042-1.5951 0.48177-2.8711 0.66406-0.72266 0.10417-1.2337 0.22136-1.5332 0.35156-0.29948 0.13022-0.5306 0.32064-0.69336 0.57129-0.16276 0.25066-0.24414 0.52898-0.24414 0.83496 0 0.46876 0.17741 0.85938 0.53223 1.1719 0.35481 0.3125 0.87402 0.46875 1.5576 0.46875 0.67707 0 1.2793-0.14811 1.8066-0.44434 0.52733-0.29622 0.9147-0.70149 1.1621-1.2158 0.18879-0.39713 0.28319-0.98307 0.2832-1.7578z"/>
      <path id="path2969" style="fill:#00aa00" d="m280.09 935.93v-10.371h1.5723v1.4551c0.32552-0.5078 0.75846-0.91633 1.2988-1.2256 0.54036-0.30923 1.1556-0.46385 1.8457-0.46386 0.76822 0.00001 1.3981 0.15951 1.8896 0.47851 0.49153 0.31902 0.83821 0.76499 1.04 1.3379 0.82031-1.2109 1.888-1.8164 3.2031-1.8164 1.0286 0.00001 1.8196 0.28484 2.373 0.85449 0.55337 0.56967 0.83007 1.447 0.83008 2.6318v7.1191h-1.748v-6.5332c-0.00002-0.70312-0.057-1.2093-0.1709-1.5186-0.11395-0.30924-0.32065-0.55826-0.62012-0.74707-0.29949-0.1888-0.65105-0.2832-1.0547-0.28321-0.72918 0.00001-1.3346 0.24253-1.8164 0.72754-0.48178 0.48504-0.72267 1.2614-0.72266 2.3291v6.0254h-1.7578v-6.7383c-0.00001-0.78124-0.14324-1.3672-0.42969-1.7578-0.28646-0.39061-0.75521-0.58593-1.4062-0.58594-0.4948 0.00001-0.95215 0.13022-1.3721 0.39063-0.41993 0.26042-0.72429 0.64128-0.91309 1.1426-0.1888 0.50131-0.2832 1.224-0.2832 2.168v5.3809z"/>
    </g>
    <g id="text3640" style="fill:#0056ff">
      <path id="path2913" d="m206.55 746.65-41.602-107.37h15.381l27.905 78.003c2.246 6.25 4.1259 12.109 5.6396 17.578 1.6601-5.8594 3.5888-11.719 5.7861-17.578l29.004-78.003h14.502l-42.041 107.37z"/>
    </g>
    <g id="text3640-1" style="fill:#0056ff">
      <path id="path2916" d="m255.23 822.82v-107.37h40.283c8.2031 0.00011 14.783 1.0865 19.739 3.2593 4.956 2.173 8.8378 5.5177 11.646 10.034 2.8075 4.5167 4.2113 9.2408 4.2114 14.172-0.00008 4.5899-1.2452 8.9112-3.7354 12.964-2.4903 4.0528-6.2501 7.3243-11.279 9.8144 6.4941 1.9044 11.487 5.1514 14.978 9.7412 3.4911 4.5899 5.2367 10.01 5.2368 16.26-0.00009 5.0293-1.0621 9.7046-3.186 14.026-2.1241 4.3213-4.7486 7.6538-7.8735 9.9976-3.1251 2.3438-7.0435 4.1138-11.755 5.3101-4.712 1.1963-10.486 1.7944-17.322 1.7944zm14.209-62.256h23.218c6.2988 0.00006 10.815-0.41498 13.55-1.2451 3.6132-1.0742 6.3354-2.8564 8.1665-5.3467 1.831-2.4902 2.7465-5.6152 2.7466-9.375-0.00008-3.5644-0.85457-6.7016-2.5635-9.4116-1.709-2.7099-4.1505-4.5653-7.3242-5.5664-3.1739-1.0009-8.6182-1.5014-16.333-1.5015h-21.46zm0 49.585h26.733c4.5898 0.00001 7.8124-0.17089 9.668-0.5127 3.2714-0.58592 6.0058-1.5625 8.2031-2.9297 2.1972-1.3672 4.0038-3.3569 5.4199-5.9692 1.4159-2.6123 2.1239-5.6274 2.124-9.0454-0.00008-4.0039-1.0255-7.4829-3.0762-10.437-2.0508-2.9541-4.8951-5.0293-8.5327-6.2256-3.6378-1.1962-8.8746-1.7944-15.71-1.7944h-24.829z"/>
    </g>
  </g>
  <metadata>
    <rdf:RDF>
      <cc:Work>
        <dc:format>image/svg+xml</dc:format>
        <dc:type rdf:resource="http://purl.org/dc/dcmitype/StillImage"/>
        <cc:license rdf:resource="http://creativecommons.org/licenses/publicdomain/"/>
        <dc:publisher>
          <cc:Agent rdf:about="http://openclipart.org/">
            <dc:title>Openclipart</dc:title>
          </cc:Agent>
        </dc:publisher>
        <dc:title>Visual Basic Icon</dc:title>
        <dc:date>2010-06-29T07:49:34</dc:date>
        <dc:description>Here is an icon I made to show "Visual Basic". Feel free to remix it into a different programming language etc.</dc:description>
        <dc:source>https://openclipart.org/detail/69247/visual-basic-icon-by-marricklip14</dc:source>
        <dc:creator>
          <cc:Agent>
            <dc:title>marricklip14</dc:title>
          </cc:Agent>
        </dc:creator>
        <dc:subject>
          <rdf:Bag>
            <rdf:li>Basic</rdf:li>
            <rdf:li>Icon</rdf:li>
            <rdf:li>Logo</rdf:li>
            <rdf:li>Marrick</rdf:li>
            <rdf:li>Paper</rdf:li>
            <rdf:li>VB</rdf:li>
            <rdf:li>Visual</rdf:li>
            <rdf:li>Visual Basic</rdf:li>
          </rdf:Bag>
        </dc:subject>
      </cc:Work>
      <cc:License rdf:about="http://creativecommons.org/licenses/publicdomain/">
        <cc:permits rdf:resource="http://creativecommons.org/ns#Reproduction"/>
        <cc:permits rdf:resource="http://creativecommons.org/ns#Distribution"/>
        <cc:permits rdf:resource="http://creativecommons.org/ns#DerivativeWorks"/>
      </cc:License>
    </rdf:RDF>
  </metadata>
</svg>
